<?xml version="1.0" encoding="utf-8"?>
<!-- Generator: Adobe Illustrator 26.0.3, SVG Export Plug-In . SVG Version: 6.00 Build 0)  -->
<svg version="1.0" id="katman_1" xmlns="http://www.w3.org/2000/svg" xmlns:xlink="http://www.w3.org/1999/xlink" x="0px" y="0px"
	 viewBox="0 0 800 600" style="enable-background:new 0 0 800 600;" xml:space="preserve">
<style type="text/css">
	.st0{fill:#1D1D1B;}
</style>
<path class="st0" d="M709,277.4c0-2.4-1.7-4-4.5-4l-5.5,0.1l0.1,12.2h3v-4.2h1.8l2.6,4.2h3.5l-3.1-4.7
	C708.2,280.3,709,278.9,709,277.4z M703.9,279H702v-3.1h2.2c0.8-0.1,1.6,0.5,1.7,1.3v0.1c0,1-0.8,1.7-1.8,1.7
	C704,279,704,279,703.9,279z M260.3,333.8c-5.1,0-8.6-4-8.6-9.9V297h21v-19h-20.9l-0.2-21.8h-23.2l0.2,72.6
	c0,14.7,9.8,24.7,24.2,24.7c7.6,0,14.8-1.1,20.5-3.7v-18.5C269.2,333.2,264.8,334,260.3,333.8L260.3,333.8z M315.7,276.8
	c-21.6,0-38.2,16.8-38.2,39.1c0,22.1,16.6,37.5,39.5,37.5c12.9,0,25-4.6,32.4-14.1l-17.8-8.1c-3.6,3.3-9.1,4.6-14,4.6
	c-8,0-16-4.1-17.1-12.5h53.1c0.8-3,1.2-6.1,1.2-9.2C354.8,291.2,338.1,276.8,315.7,276.8L315.7,276.8z M300.5,308.6
	c0.7-10,7.9-14.6,15.8-14.6c8.9,0,15.6,5,15.6,13.6v1H300.5z M206.3,333.8c-5.1,0-8.6-4-8.6-9.9V297h21v-19h-20.9l-0.2-21.8h-23.2
	l0.2,72.6c0,14.7,9.8,24.7,24.2,24.7c7.6,0,14.8-1.1,20.5-3.7v-18.5C215.2,333.2,210.8,334,206.3,333.8z M124.8,276.8
	c-19.9,0-40.8,13.1-40.8,39.5c0,22,14.8,37.4,33.5,37.4c10.7,0,18.8-4.3,24.1-11.9l0.7,10.6h22.4v-35.2
	C164.8,290.4,145,276.8,124.8,276.8z M124.8,333.4c-10.1,0-17.4-7.5-17.4-18.1s7.2-18.1,17.4-18.1c9.4,0,17.2,8.2,17.2,18.1
	S134.2,333.4,124.8,333.4L124.8,333.4z M703.4,267.9c-7.3,0.1-12,4.8-11.9,11.8s4.9,11.6,12.2,11.5c7.1-0.1,11.9-4.8,11.8-11.9
	S710.6,267.8,703.4,267.9L703.4,267.9z M703.7,289.2c-5.7,0.1-9.6-3.7-9.6-9.5s3.7-9.7,9.4-9.8s9.5,3.7,9.6,9.6
	C713.1,285.2,709.3,289.1,703.7,289.2L703.7,289.2z M590,278.1l-16.2,47l-16.4-47h-25.2l30.2,74.2H585l30.2-74.2H590z M650.1,276.8
	c-21.6,0-38.2,16.8-38.2,39.1c0,22.1,16.6,37.5,39.5,37.5c12.9,0,25-4.6,32.4-14.1l-17.8-8.1c-3.6,3.3-9.1,4.6-14,4.6
	c-8,0-16-4.1-17.1-12.5H688c0.8-3,1.2-6.1,1.2-9.2C689.2,291.2,672.5,276.8,650.1,276.8L650.1,276.8z M666.3,308.6h-31.4
	c0.7-10,7.9-14.6,15.8-14.6c8.9,0,15.6,5,15.6,13.6L666.3,308.6z M514.3,245.5c-8.2,0-14.4,5.5-14.4,13.2s6.2,13.4,14.4,13.4
	c8.2,0,14.4-5.6,14.4-13.4S522.6,245.5,514.3,245.5L514.3,245.5z M409,276.7c-9.5-0.2-18.5,4.7-23.5,12.8l-0.8-11.4h-22.4v74.2h23.2
	v-38.9c0.5-9.3,8-16.4,16.2-16.4c9.2,0,13.4,6.9,13.4,15.6v39.6h23.1V309C438.2,290.2,426.8,276.7,409,276.7L409,276.7z
	 M479.8,333.8c-5.1,0-8.6-4-8.6-9.9V297h21v-19h-21l-0.2-21.8h-23.2l0.2,72.6c0,14.7,9.8,24.7,24.2,24.7c7.6,0,14.8-1.1,20.5-3.7
	v-18.5C488.7,333.2,484.3,334,479.8,333.8L479.8,333.8z M502.6,278.1v74.2H526v-74.2C518.9,282.8,509.7,282.8,502.6,278.1
	L502.6,278.1z"/>
</svg>
